<?xml version="1.0" encoding="UTF-8"?><svg id="Layer_1" xmlns="http://www.w3.org/2000/svg" viewBox="0 0 256.29 173.02"><defs><style>.cls-1{fill:#666;}.cls-1,.cls-2{stroke-width:0px;}.cls-2{fill:#ba0c2f;}</style></defs><path class="cls-1" d="M18.48,103.54l-.44-3.02h-5.53v19.54l2.95.44v1.86H4.98v-1.86l2.95-.44v-19.54H2.4l-.44,3.02H0v-5.56h20.44v5.56h-1.97Z"/><path class="cls-1" d="M33.65,122.35v-1.75l2.73-.44v-6.66h-7.28v6.66l2.73.44v1.75h-9.93v-1.75l2.84-.44v-14.73l-2.84-.44v-1.75h9.93v1.75l-2.73.44v5.75h7.28v-5.75l-2.73-.44v-1.75h9.93v1.75l-2.84.44v14.73l2.84.44v1.75h-9.93Z"/><path class="cls-1" d="M62.16,122.35h-16.48v-1.75l2.84-.44v-14.73l-2.84-.44v-1.75h16.48v5.06h-1.85l-.44-2.73h-6.98v5.67h4.36l.44-2.44h1.64v7.06h-1.64l-.44-2.44h-4.36v6.58h6.98l.44-2.73h1.85v5.06Z"/><path class="cls-1" d="M85.33,122.78c-7.57,0-10.87-4.51-10.87-12.69s3.35-12.55,10.91-12.55,10.88,4.51,10.88,12.7-3.35,12.55-10.91,12.55ZM85.37,100.19c-4.04,0-6.11,3.24-6.11,9.93s2,10,6.04,10,6.11-3.24,6.11-9.93-2-10-6.04-10Z"/><path class="cls-1" d="M109.96,122.35v-1.75l2.73-.44v-6.66h-7.27v6.66l2.73.44v1.75h-9.93v-1.75l2.84-.44v-14.73l-2.84-.44v-1.75h9.93v1.75l-2.73.44v5.75h7.27v-5.75l-2.73-.44v-1.75h9.93v1.75l-2.84.44v14.73l2.84.44v1.75h-9.93Z"/><path class="cls-1" d="M122.25,122.35v-1.75l2.84-.44v-14.73l-2.84-.44v-1.75h10.04v1.75l-2.84.44v14.73l2.84.44v1.75h-10.04Z"/><path class="cls-1" d="M143.06,122.71c-6.44,0-9.24-3.6-9.24-9.93s2.84-9.86,9.28-9.86,9.24,3.6,9.24,9.93-2.84,9.86-9.27,9.86ZM143.1,105.43c-3.06,0-4.69,2.22-4.69,7.35s1.56,7.42,4.62,7.42,4.73-2.22,4.73-7.35-1.6-7.42-4.66-7.42Z"/><path class="cls-1" d="M172.23,122.78c-4.22,0-7.6-1.46-7.6-1.46v-5.2h2.07l.47,3.35s1.56.54,4.33.54,5.38-.95,5.38-4.04c0-2.8-1.96-3.2-4.37-4-3.82-1.27-7.86-2.37-7.86-7.6,0-4.26,2.66-6.84,8.22-6.84,2.55,0,5.2.58,7.28,1.38v4.87h-2.07l-.47-3.13s-2.18-.47-4.29-.47-4.29.73-4.29,3.53c0,6.07,12.22,2.07,12.22,11.79,0,4.58-2.98,7.27-9.02,7.27Z"/><path class="cls-1" d="M198.49,108.52l-.44-2.95h-4.22v14.59l2.84.44v1.75h-10.04v-1.75l2.84-.44v-14.59h-4.22l-.44,2.95h-1.86v-5.27h17.39v5.27h-1.86Z"/><path class="cls-1" d="M212.02,122.35v-1.75l2.73-.44-1.34-3.46h-7.27l-1.35,3.46,2.73.44v1.75h-8.33v-1.75l2.73-.44,6.55-16.91h4.18l6.55,16.91,2.73.44v1.75h-9.89ZM209.77,106.92l-2.76,7.57h5.53l-2.77-7.57Z"/><path class="cls-1" d="M236.28,108.52l-.44-2.95h-4.22v14.59l2.84.44v1.75h-10.04v-1.75l2.84-.44v-14.59h-4.22l-.44,2.95h-1.86v-5.27h17.39v5.27h-1.86Z"/><path class="cls-1" d="M256.29,122.35h-16.48v-1.75l2.84-.44v-14.73l-2.84-.44v-1.75h16.48v5.06h-1.85l-.44-2.73h-6.98v5.67h4.36l.44-2.44h1.64v7.06h-1.64l-.44-2.44h-4.36v6.58h6.98l.44-2.73h1.85v5.06Z"/><path class="cls-1" d="M51.92,136.29v12.44c0,4.18-.25,6-2.22,7.97-1.42,1.42-3.75,2.11-7.2,2.11s-5.97-.95-7.57-2.55c-2.07-2.07-1.85-5.17-1.85-7.86v-12.11l-2.95-.44v-1.85h10.48v1.85l-2.95.44v14.26c0,4,2.22,5.6,5.64,5.6,1.82,0,3.31-.36,4.29-1.42.87-.91,1.35-2.33,1.35-4.18v-14.26l-2.95-.44v-1.85h8.87v1.85l-2.95.44Z"/><path class="cls-1" d="M74.87,141.45v16.91h-3.42l-9.71-13.64v11.46l2.84.44v1.75h-8.55v-1.75l2.84-.44v-14.73l-2.84-.44v-1.75h6.66l9.31,13.02v-10.84l-2.84-.44v-1.75h8.55v1.75l-2.84.44Z"/><path class="cls-1" d="M79.97,158.37v-1.75l2.84-.44v-14.73l-2.84-.44v-1.75h10.04v1.75l-2.84.44v14.73l2.84.44v1.75h-10.04Z"/><path class="cls-1" d="M111.32,141.45l-6.37,16.91h-4.22l-6.37-16.91-2.73-.44v-1.75h9.89v1.75l-2.73.44,4.84,13.09,4.8-13.09-2.73-.44v-1.75h8.33v1.75l-2.73.44Z"/><path class="cls-1" d="M132.02,158.37h-16.48v-1.75l2.84-.44v-14.73l-2.84-.44v-1.75h16.48v5.06h-1.86l-.43-2.73h-6.98v5.67h4.36l.44-2.44h1.64v7.06h-1.64l-.44-2.44h-4.36v6.59h6.98l.43-2.73h1.86v5.06Z"/><path class="cls-1" d="M148.75,158.37l-1.78-4.37c-1.2-2.91-1.93-4.25-4.47-4.25h-.33v6.44l2.73.44v1.75h-9.93v-1.75l2.84-.44v-14.73l-2.84-.44v-1.75h9.64c1.96,0,4.25.11,5.75,1.49.98.91,1.53,2.14,1.53,3.56,0,2.22-1.46,4.22-3.46,4.84,1.6,1.2,2.98,5.13,3.78,7.02l2.73.44v1.75h-6.18ZM146.71,142.18c-.73-.76-2.29-.69-3.27-.69h-1.27v6.11h.76c1.24,0,2.95.14,3.86-.87.58-.65.73-1.42.73-2.25s-.18-1.64-.8-2.29Z"/><path class="cls-1" d="M163.55,158.73c-3.56,0-6.55-1.2-6.55-1.2v-4.95h1.96l.47,3.13s1.38.4,3.53.4c2.33,0,4.11-.76,4.11-2.84,0-1.45-.8-1.96-2-2.36-3.53-1.2-8.04-1.71-8.04-6.47,0-3.42,2.37-5.49,7.06-5.49,2.15,0,4.37.44,6.29,1.13v4.73h-1.96l-.47-2.98s-1.6-.36-3.38-.36-3.35.62-3.35,2.47c0,4.26,10.08,1.42,10.08,8.98,0,3.71-2.69,5.82-7.75,5.82Z"/><path class="cls-1" d="M173.85,158.37v-1.75l2.84-.44v-14.73l-2.84-.44v-1.75h10.04v1.75l-2.84.44v14.73l2.84.44v1.75h-10.04Z"/><path class="cls-1" d="M201.49,144.55l-.44-2.95h-4.22v14.59l2.84.44v1.75h-10.04v-1.75l2.84-.44v-14.59h-4.22l-.44,2.95h-1.85v-5.27h17.39v5.27h-1.85Z"/><path class="cls-1" d="M223.42,141.45l-5.56,8.62v6.11l2.84.44v1.75h-10.04v-1.75l2.84-.44v-6.11l-5.64-8.62-2.73-.44v-1.75h10.11v1.75l-2.73.44,3.93,6.18,3.89-6.18-2.62-.44v-1.75h8.44v1.75l-2.73.44Z"/><path class="cls-2" d="M114.53,21.8l5.18-5.18h16.8l5.18,5.18v34.54l-5.18,5.18h-16.8l-5.18-5.18V21.8h0ZM154.77,16.16l-12.81-12.78h-27.74l-12.88,12.89v45.61l12.88,12.88h27.74l12.81-12.74V16.16h0Z"/><path class="cls-1" d="M99.67,62.62V15.26l13.94-13.93h29.15s14,13.93,14,13.93l-.24,47.47-13.85,13.85h-29.05s-13.94-13.95-13.94-13.95h0ZM113.02,0l-14.67,14.67v48.56l14.57,14.75h30.34l14.57-14.67.1-48.65-14.57-14.67h-30.34Z"/><path class="cls-1" d="M121.23,19.94h13.77l3.29,3.28v31.76l-3.16,3.16h-14.02l-3.11-3.12v-31.85l3.24-3.24h0ZM139.62,22.73l-4.11-4.12h-14.85l-4.06,4.06v32.83l3.97,3.97h15.11l3.94-3.94V22.73h0Z"/><polygon class="cls-1" points="28.68 171.65 28.68 173.02 227.6 173.02 227.6 171.65 28.68 171.65 28.68 171.65"/></svg>